<svg xmlns="http://www.w3.org/2000/svg" style="display:none">
  <symbol id="icon-delete" viewBox="0 0 24 24">
    <circle cx="12" cy="12" r="10"></circle>
    <path d="m15 9-6 6"></path>
    <path d="m9 9 6 6"></path>
  </symbol>
  <symbol id="icon-login" viewBox="0 0 24 24">
    <circle cx="12" cy="12" r="10"></circle>
    <path d="m9 12 2 2 4-4"></path>
  </symbol>
  <symbol id="icon-logout" viewBox="0 0 24 24">
    <path d="m16 17 5-5-5-5"></path>
    <path d="M21 12H9"></path>
    <path d="M9 21H5a2 2 0 0 1-2-2V5a2 2 0 0 1 2-2h4"></path>
  </symbol>
  <symbol id="icon-reply" viewBox="0 0 24 24">
    <path d="M20 18v-2a4 4 0 0 0-4-4H4"></path>
    <path d="m9 17-5-5 5-5"></path>
  </symbol>
  <symbol id="icon-settings" viewBox="0 0 24 24">
    <path d="M9.671 4.136a2.34 2.34 0 0 1 4.659 0 2.34 2.34 0 0 0 3.319 1.915 2.34 2.34 0 0 1 2.33 4.033 2.34 2.34 0 0 0 0 3.831 2.34 2.34 0 0 1-2.33 4.033 2.34 2.34 0 0 0-3.319 1.915 2.34 2.34 0 0 1-4.659 0 2.34 2.34 0 0 0-3.32-1.915 2.34 2.34 0 0 1-2.33-4.033 2.34 2.34 0 0 0 0-3.831A2.34 2.34 0 0 1 6.35 6.051a2.34 2.34 0 0 0 3.319-1.915"></path>
    <circle cx="12" cy="12" r="3"></circle>
  </symbol>
  <symbol id="icon-back" viewBox="0 0 24 24">
    <path d="m12 19-7-7 7-7"></path>
    <path d="M19 12H5"></path>
  </symbol>
</svg>
